# xmcd CD database file
#
# Track frame offsets:
#	150
#	21165
#	43912
#	66092
#	82692
#	110737
#	129275
#	148350
#	169467
#	189640
#	222867
#
# Disc length: 3721 seconds
#
# Revision: 1
# Processed by: cddbd v1.5PL3 Copyright (c) Steve Scherf et al.
# Submitted via: CDex 1.50
#
DISCID=a30e870b
DTITLE=magic slim - blue magic
DYEAR=2002
DGENRE=Blues
TTITLE0=How Many More Years
TTITLE1=I'm A Bluesman
TTITLE2=Chickenheads
TTITLE3=Get Your Business Straight
TTITLE4=Evil Woman blues
TTITLE5=You Got To Pay
TTITLE6=Lonely For Your Love
TTITLE7=I Want To See You In The Evening
TTITLE8=I Started Loving You Again
TTITLE9=Going To Mississippi
TTITLE10=data
EXTD=YEAR: 2002
EXTT0=
EXTT1=
EXTT2=
EXTT3=
EXTT4=
EXTT5=
EXTT6=
EXTT7=
EXTT8=
EXTT9=
EXTT10=
PLAYORDER=
